<svg xmlns="http://www.w3.org/2000/svg" viewBox="0 0 32 32">
  <defs>
    <linearGradient id="grad" x1="0%" y1="0%" x2="100%" y2="100%">
      <stop offset="0%" style="stop-color:#60a5fa"/>
      <stop offset="100%" style="stop-color:#3b82f6"/>
    </linearGradient>
  </defs>
  <rect width="32" height="32" rx="8" fill="url(#grad)"/>
  <path d="M8 10h16M8 10a2 2 0 01-2-2V6a2 2 0 012-2h16a2 2 0 012 2v2a2 2 0 01-2 2M8 10a2 2 0 00-2 2v2a2 2 0 002 2h16a2 2 0 002-2v-2a2 2 0 00-2-2M8 16a2 2 0 00-2 2v2a2 2 0 002 2h16a2 2 0 002-2v-2a2 2 0 00-2-2m-2-6h.01M22 12h.01M22 18h.01"
        stroke="white"
        stroke-width="1.5"
        stroke-linecap="round"
        stroke-linejoin="round"
        fill="none"
        transform="translate(0, 5)"/>
</svg>
